<svg xmlns="http://www.w3.org/2000/svg" xmlns:xlink="http://www.w3.org/1999/xlink" width="389" zoomAndPan="magnify" viewBox="0 0 291.75 193.499995" height="258" preserveAspectRatio="xMidYMid meet" version="1.0"><defs><g/><clipPath id="6642dc666c"><path d="M 76 78.164062 L 113 78.164062 L 113 115.601562 L 76 115.601562 Z M 76 78.164062 " clip-rule="nonzero"/></clipPath><clipPath id="b23fd1ed4c"><path d="M 90.777344 113.53125 L 77.863281 100.621094 C 75.796875 98.554688 75.796875 95.203125 77.863281 93.144531 L 90.777344 80.230469 C 92.84375 78.164062 96.195312 78.164062 98.253906 80.230469 L 111.164062 93.144531 C 113.230469 95.210938 113.230469 98.5625 111.164062 100.621094 L 98.253906 113.53125 C 96.195312 115.601562 92.84375 115.601562 90.777344 113.53125 Z M 90.777344 113.53125 " clip-rule="nonzero"/></clipPath><linearGradient x1="-69.058961" gradientTransform="matrix(-0.0868369, 0, 0, 0.0868369, 107.674143, 73.648803)" y1="477.79582" x2="372.151478" gradientUnits="userSpaceOnUse" y2="57.30459" id="e0d35ea405"><stop stop-opacity="1" stop-color="rgb(19.198608%, 0.39978%, 100%)" offset="0"/><stop stop-opacity="1" stop-color="rgb(19.198608%, 0.39978%, 100%)" offset="0.125"/><stop stop-opacity="1" stop-color="rgb(19.198608%, 0.39978%, 100%)" offset="0.132812"/><stop stop-opacity="1" stop-color="rgb(19.528198%, 0.805664%, 100%)" offset="0.136719"/><stop stop-opacity="1" stop-color="rgb(19.857788%, 1.211548%, 100%)" offset="0.140625"/><stop stop-opacity="1" stop-color="rgb(20.295715%, 1.751709%, 100%)" offset="0.144531"/><stop stop-opacity="1" stop-color="rgb(20.735168%, 2.293396%, 100%)" offset="0.148438"/><stop stop-opacity="1" stop-color="rgb(21.174622%, 2.833557%, 100%)" offset="0.152344"/><stop stop-opacity="1" stop-color="rgb(21.614075%, 3.375244%, 100%)" offset="0.15625"/><stop stop-opacity="1" stop-color="rgb(22.052002%, 3.915405%, 100%)" offset="0.160156"/><stop stop-opacity="1" stop-color="rgb(22.491455%, 4.457092%, 100%)" offset="0.164062"/><stop stop-opacity="1" stop-color="rgb(22.929382%, 4.997253%, 100%)" offset="0.167969"/><stop stop-opacity="1" stop-color="rgb(23.368835%, 5.53894%, 100%)" offset="0.171875"/><stop stop-opacity="1" stop-color="rgb(23.808289%, 6.079102%, 100%)" offset="0.175781"/><stop stop-opacity="1" stop-color="rgb(24.247742%, 6.620789%, 100%)" offset="0.179688"/><stop stop-opacity="1" stop-color="rgb(24.685669%, 7.162476%, 100%)" offset="0.183594"/><stop stop-opacity="1" stop-color="rgb(25.125122%, 7.704163%, 100%)" offset="0.1875"/><stop stop-opacity="1" stop-color="rgb(25.563049%, 8.244324%, 100%)" offset="0.191406"/><stop stop-opacity="1" stop-color="rgb(26.002502%, 8.786011%, 100%)" offset="0.195313"/><stop stop-opacity="1" stop-color="rgb(26.44043%, 9.326172%, 100%)" offset="0.199219"/><stop stop-opacity="1" stop-color="rgb(26.879883%, 9.867859%, 100%)" offset="0.203125"/><stop stop-opacity="1" stop-color="rgb(27.319336%, 10.40802%, 100%)" offset="0.207031"/><stop stop-opacity="1" stop-color="rgb(27.758789%, 10.949707%, 100%)" offset="0.210938"/><stop stop-opacity="1" stop-color="rgb(28.196716%, 11.489868%, 100%)" offset="0.214844"/><stop stop-opacity="1" stop-color="rgb(28.636169%, 12.031555%, 100%)" offset="0.21875"/><stop stop-opacity="1" stop-color="rgb(29.074097%, 12.571716%, 100%)" offset="0.222656"/><stop stop-opacity="1" stop-color="rgb(29.51355%, 13.113403%, 100%)" offset="0.226562"/><stop stop-opacity="1" stop-color="rgb(29.951477%, 13.653564%, 100%)" offset="0.230469"/><stop stop-opacity="1" stop-color="rgb(30.39093%, 14.195251%, 100%)" offset="0.234375"/><stop stop-opacity="1" stop-color="rgb(30.830383%, 14.735413%, 100%)" offset="0.238281"/><stop stop-opacity="1" stop-color="rgb(31.269836%, 15.2771%, 100%)" offset="0.242188"/><stop stop-opacity="1" stop-color="rgb(31.707764%, 15.817261%, 100%)" offset="0.246094"/><stop stop-opacity="1" stop-color="rgb(32.147217%, 16.358948%, 100%)" offset="0.25"/><stop stop-opacity="1" stop-color="rgb(32.585144%, 16.900635%, 100%)" offset="0.253906"/><stop stop-opacity="1" stop-color="rgb(33.024597%, 17.442322%, 100%)" offset="0.257812"/><stop stop-opacity="1" stop-color="rgb(33.462524%, 17.982483%, 100%)" offset="0.261719"/><stop stop-opacity="1" stop-color="rgb(33.901978%, 18.52417%, 100%)" offset="0.265625"/><stop stop-opacity="1" stop-color="rgb(34.341431%, 19.064331%, 100%)" offset="0.269531"/><stop stop-opacity="1" stop-color="rgb(34.780884%, 19.606018%, 100%)" offset="0.273438"/><stop stop-opacity="1" stop-color="rgb(35.218811%, 20.146179%, 100%)" offset="0.277344"/><stop stop-opacity="1" stop-color="rgb(35.658264%, 20.687866%, 100%)" offset="0.28125"/><stop stop-opacity="1" stop-color="rgb(36.096191%, 21.228027%, 100%)" offset="0.285156"/><stop stop-opacity="1" stop-color="rgb(36.535645%, 21.769714%, 100%)" offset="0.289063"/><stop stop-opacity="1" stop-color="rgb(36.975098%, 22.309875%, 100%)" offset="0.292969"/><stop stop-opacity="1" stop-color="rgb(37.414551%, 22.851562%, 100%)" offset="0.296875"/><stop stop-opacity="1" stop-color="rgb(37.852478%, 23.391724%, 100%)" offset="0.300781"/><stop stop-opacity="1" stop-color="rgb(38.291931%, 23.933411%, 100%)" offset="0.304688"/><stop stop-opacity="1" stop-color="rgb(38.729858%, 24.473572%, 100%)" offset="0.308594"/><stop stop-opacity="1" stop-color="rgb(39.169312%, 25.015259%, 100%)" offset="0.3125"/><stop stop-opacity="1" stop-color="rgb(39.607239%, 25.556946%, 100%)" offset="0.316406"/><stop stop-opacity="1" stop-color="rgb(40.046692%, 26.098633%, 100%)" offset="0.320312"/><stop stop-opacity="1" stop-color="rgb(40.486145%, 26.638794%, 100%)" offset="0.324219"/><stop stop-opacity="1" stop-color="rgb(40.925598%, 27.180481%, 100%)" offset="0.328125"/><stop stop-opacity="1" stop-color="rgb(41.363525%, 27.720642%, 100%)" offset="0.332031"/><stop stop-opacity="1" stop-color="rgb(41.802979%, 28.262329%, 100%)" offset="0.335938"/><stop stop-opacity="1" stop-color="rgb(42.240906%, 28.80249%, 100%)" offset="0.339844"/><stop stop-opacity="1" stop-color="rgb(42.680359%, 29.344177%, 100%)" offset="0.34375"/><stop stop-opacity="1" stop-color="rgb(43.118286%, 29.884338%, 100%)" offset="0.347656"/><stop stop-opacity="1" stop-color="rgb(43.557739%, 30.426025%, 100%)" offset="0.351562"/><stop stop-opacity="1" stop-color="rgb(43.997192%, 30.966187%, 100%)" offset="0.355469"/><stop stop-opacity="1" stop-color="rgb(44.436646%, 31.507874%, 100%)" offset="0.359375"/><stop stop-opacity="1" stop-color="rgb(44.874573%, 32.048035%, 100%)" offset="0.363281"/><stop stop-opacity="1" stop-color="rgb(45.314026%, 32.589722%, 100%)" offset="0.367188"/><stop stop-opacity="1" stop-color="rgb(45.751953%, 33.129883%, 100%)" offset="0.371094"/><stop stop-opacity="1" stop-color="rgb(46.191406%, 33.67157%, 100%)" offset="0.375"/><stop stop-opacity="1" stop-color="rgb(46.629333%, 34.211731%, 100%)" offset="0.378906"/><stop stop-opacity="1" stop-color="rgb(47.068787%, 34.753418%, 100%)" offset="0.382813"/><stop stop-opacity="1" stop-color="rgb(47.50824%, 35.295105%, 100%)" offset="0.386719"/><stop stop-opacity="1" stop-color="rgb(47.947693%, 35.836792%, 100%)" offset="0.390625"/><stop stop-opacity="1" stop-color="rgb(48.38562%, 36.376953%, 100%)" offset="0.394531"/><stop stop-opacity="1" stop-color="rgb(48.825073%, 36.91864%, 100%)" offset="0.398438"/><stop stop-opacity="1" stop-color="rgb(49.263%, 37.458801%, 100%)" offset="0.402344"/><stop stop-opacity="1" stop-color="rgb(49.702454%, 38.000488%, 100%)" offset="0.40625"/><stop stop-opacity="1" stop-color="rgb(50.140381%, 38.540649%, 100%)" offset="0.410156"/><stop stop-opacity="1" stop-color="rgb(50.579834%, 39.082336%, 100%)" offset="0.414062"/><stop stop-opacity="1" stop-color="rgb(51.019287%, 39.622498%, 100%)" offset="0.417969"/><stop stop-opacity="1" stop-color="rgb(51.45874%, 40.164185%, 100%)" offset="0.421875"/><stop stop-opacity="1" stop-color="rgb(51.896667%, 40.704346%, 100%)" offset="0.425781"/><stop stop-opacity="1" stop-color="rgb(52.336121%, 41.246033%, 100%)" offset="0.429688"/><stop stop-opacity="1" stop-color="rgb(52.774048%, 41.786194%, 100%)" offset="0.433594"/><stop stop-opacity="1" stop-color="rgb(53.213501%, 42.327881%, 100%)" offset="0.4375"/><stop stop-opacity="1" stop-color="rgb(53.652954%, 42.868042%, 100%)" offset="0.441406"/><stop stop-opacity="1" stop-color="rgb(54.092407%, 43.409729%, 100%)" offset="0.445312"/><stop stop-opacity="1" stop-color="rgb(54.530334%, 43.94989%, 100%)" offset="0.449219"/><stop stop-opacity="1" stop-color="rgb(54.969788%, 44.491577%, 100%)" offset="0.453125"/><stop stop-opacity="1" stop-color="rgb(55.407715%, 45.033264%, 100%)" offset="0.457031"/><stop stop-opacity="1" stop-color="rgb(55.847168%, 45.574951%, 100%)" offset="0.460938"/><stop stop-opacity="1" stop-color="rgb(56.285095%, 46.115112%, 100%)" offset="0.464844"/><stop stop-opacity="1" stop-color="rgb(56.724548%, 46.656799%, 100%)" offset="0.46875"/><stop stop-opacity="1" stop-color="rgb(57.164001%, 47.19696%, 100%)" offset="0.472656"/><stop stop-opacity="1" stop-color="rgb(57.603455%, 47.738647%, 100%)" offset="0.476563"/><stop stop-opacity="1" stop-color="rgb(58.041382%, 48.278809%, 100%)" offset="0.480469"/><stop stop-opacity="1" stop-color="rgb(58.480835%, 48.820496%, 100%)" offset="0.484375"/><stop stop-opacity="1" stop-color="rgb(58.918762%, 49.360657%, 100%)" offset="0.488281"/><stop stop-opacity="1" stop-color="rgb(59.358215%, 49.902344%, 100%)" offset="0.492188"/><stop stop-opacity="1" stop-color="rgb(59.796143%, 50.442505%, 100%)" offset="0.496094"/><stop stop-opacity="1" stop-color="rgb(60.235596%, 50.984192%, 100%)" offset="0.5"/><stop stop-opacity="1" stop-color="rgb(60.675049%, 51.524353%, 100%)" offset="0.503906"/><stop stop-opacity="1" stop-color="rgb(61.114502%, 52.06604%, 100%)" offset="0.507812"/><stop stop-opacity="1" stop-color="rgb(61.552429%, 52.606201%, 100%)" offset="0.511719"/><stop stop-opacity="1" stop-color="rgb(61.991882%, 53.147888%, 100%)" offset="0.515625"/><stop stop-opacity="1" stop-color="rgb(62.42981%, 53.688049%, 100%)" offset="0.519531"/><stop stop-opacity="1" stop-color="rgb(62.869263%, 54.229736%, 100%)" offset="0.523438"/><stop stop-opacity="1" stop-color="rgb(63.30719%, 54.771423%, 100%)" offset="0.527344"/><stop stop-opacity="1" stop-color="rgb(63.746643%, 55.31311%, 100%)" offset="0.53125"/><stop stop-opacity="1" stop-color="rgb(64.186096%, 55.853271%, 100%)" offset="0.535156"/><stop stop-opacity="1" stop-color="rgb(64.625549%, 56.394958%, 100%)" offset="0.539062"/><stop stop-opacity="1" stop-color="rgb(65.063477%, 56.93512%, 100%)" offset="0.542969"/><stop stop-opacity="1" stop-color="rgb(65.50293%, 57.476807%, 100%)" offset="0.546875"/><stop stop-opacity="1" stop-color="rgb(65.940857%, 58.016968%, 100%)" offset="0.550781"/><stop stop-opacity="1" stop-color="rgb(66.38031%, 58.558655%, 100%)" offset="0.554688"/><stop stop-opacity="1" stop-color="rgb(66.819763%, 59.098816%, 100%)" offset="0.558594"/><stop stop-opacity="1" stop-color="rgb(67.259216%, 59.640503%, 100%)" offset="0.5625"/><stop stop-opacity="1" stop-color="rgb(67.697144%, 60.180664%, 100%)" offset="0.566406"/><stop stop-opacity="1" stop-color="rgb(68.136597%, 60.722351%, 100%)" offset="0.570312"/><stop stop-opacity="1" stop-color="rgb(68.574524%, 61.262512%, 100%)" offset="0.574219"/><stop stop-opacity="1" stop-color="rgb(69.013977%, 61.804199%, 100%)" offset="0.578125"/><stop stop-opacity="1" stop-color="rgb(69.451904%, 62.34436%, 100%)" offset="0.582031"/><stop stop-opacity="1" stop-color="rgb(69.891357%, 62.886047%, 100%)" offset="0.585938"/><stop stop-opacity="1" stop-color="rgb(70.330811%, 63.426208%, 100%)" offset="0.589844"/><stop stop-opacity="1" stop-color="rgb(70.770264%, 63.967896%, 100%)" offset="0.59375"/><stop stop-opacity="1" stop-color="rgb(71.208191%, 64.509583%, 100%)" offset="0.597656"/><stop stop-opacity="1" stop-color="rgb(71.647644%, 65.05127%, 100%)" offset="0.601562"/><stop stop-opacity="1" stop-color="rgb(72.085571%, 65.591431%, 100%)" offset="0.605469"/><stop stop-opacity="1" stop-color="rgb(72.525024%, 66.133118%, 100%)" offset="0.609375"/><stop stop-opacity="1" stop-color="rgb(72.962952%, 66.673279%, 100%)" offset="0.613281"/><stop stop-opacity="1" stop-color="rgb(73.402405%, 67.214966%, 100%)" offset="0.617188"/><stop stop-opacity="1" stop-color="rgb(73.841858%, 67.755127%, 100%)" offset="0.621094"/><stop stop-opacity="1" stop-color="rgb(74.281311%, 68.296814%, 100%)" offset="0.625"/><stop stop-opacity="1" stop-color="rgb(74.719238%, 68.836975%, 100%)" offset="0.628906"/><stop stop-opacity="1" stop-color="rgb(75.158691%, 69.378662%, 100%)" offset="0.632812"/><stop stop-opacity="1" stop-color="rgb(75.596619%, 69.918823%, 100%)" offset="0.636719"/><stop stop-opacity="1" stop-color="rgb(76.036072%, 70.46051%, 100%)" offset="0.640625"/><stop stop-opacity="1" stop-color="rgb(76.473999%, 71.000671%, 100%)" offset="0.644531"/><stop stop-opacity="1" stop-color="rgb(76.913452%, 71.542358%, 100%)" offset="0.648438"/><stop stop-opacity="1" stop-color="rgb(77.352905%, 72.08252%, 100%)" offset="0.652344"/><stop stop-opacity="1" stop-color="rgb(77.792358%, 72.624207%, 100%)" offset="0.65625"/><stop stop-opacity="1" stop-color="rgb(78.230286%, 73.165894%, 100%)" offset="0.660156"/><stop stop-opacity="1" stop-color="rgb(78.669739%, 73.707581%, 100%)" offset="0.664062"/><stop stop-opacity="1" stop-color="rgb(79.107666%, 74.247742%, 100%)" offset="0.667969"/><stop stop-opacity="1" stop-color="rgb(79.547119%, 74.789429%, 100%)" offset="0.671875"/><stop stop-opacity="1" stop-color="rgb(79.985046%, 75.32959%, 100%)" offset="0.675781"/><stop stop-opacity="1" stop-color="rgb(80.4245%, 75.871277%, 100%)" offset="0.679688"/><stop stop-opacity="1" stop-color="rgb(80.863953%, 76.411438%, 100%)" offset="0.683594"/><stop stop-opacity="1" stop-color="rgb(81.303406%, 76.953125%, 100%)" offset="0.6875"/><stop stop-opacity="1" stop-color="rgb(81.741333%, 77.493286%, 100%)" offset="0.691406"/><stop stop-opacity="1" stop-color="rgb(82.180786%, 78.034973%, 100%)" offset="0.695312"/><stop stop-opacity="1" stop-color="rgb(82.618713%, 78.575134%, 100%)" offset="0.699219"/><stop stop-opacity="1" stop-color="rgb(83.058167%, 79.116821%, 100%)" offset="0.703125"/><stop stop-opacity="1" stop-color="rgb(83.49762%, 79.656982%, 100%)" offset="0.707031"/><stop stop-opacity="1" stop-color="rgb(83.937073%, 80.198669%, 100%)" offset="0.710938"/><stop stop-opacity="1" stop-color="rgb(84.375%, 80.738831%, 100%)" offset="0.714844"/><stop stop-opacity="1" stop-color="rgb(84.814453%, 81.280518%, 100%)" offset="0.71875"/><stop stop-opacity="1" stop-color="rgb(85.25238%, 81.820679%, 100%)" offset="0.722656"/><stop stop-opacity="1" stop-color="rgb(85.691833%, 82.362366%, 100%)" offset="0.726562"/><stop stop-opacity="1" stop-color="rgb(86.129761%, 82.904053%, 100%)" offset="0.730469"/><stop stop-opacity="1" stop-color="rgb(86.569214%, 83.44574%, 100%)" offset="0.734375"/><stop stop-opacity="1" stop-color="rgb(87.008667%, 83.985901%, 100%)" offset="0.738281"/><stop stop-opacity="1" stop-color="rgb(87.44812%, 84.527588%, 100%)" offset="0.742188"/><stop stop-opacity="1" stop-color="rgb(87.886047%, 85.067749%, 100%)" offset="0.746094"/><stop stop-opacity="1" stop-color="rgb(88.3255%, 85.609436%, 100%)" offset="0.75"/><stop stop-opacity="1" stop-color="rgb(88.763428%, 86.149597%, 100%)" offset="0.753906"/><stop stop-opacity="1" stop-color="rgb(89.202881%, 86.691284%, 100%)" offset="0.757812"/><stop stop-opacity="1" stop-color="rgb(89.640808%, 87.231445%, 100%)" offset="0.761719"/><stop stop-opacity="1" stop-color="rgb(90.080261%, 87.773132%, 100%)" offset="0.765625"/><stop stop-opacity="1" stop-color="rgb(90.519714%, 88.313293%, 100%)" offset="0.769531"/><stop stop-opacity="1" stop-color="rgb(90.959167%, 88.85498%, 100%)" offset="0.773438"/><stop stop-opacity="1" stop-color="rgb(91.397095%, 89.395142%, 100%)" offset="0.777344"/><stop stop-opacity="1" stop-color="rgb(91.836548%, 89.936829%, 100%)" offset="0.78125"/><stop stop-opacity="1" stop-color="rgb(92.274475%, 90.47699%, 100%)" offset="0.785156"/><stop stop-opacity="1" stop-color="rgb(92.713928%, 91.018677%, 100%)" offset="0.789062"/><stop stop-opacity="1" stop-color="rgb(93.151855%, 91.558838%, 100%)" offset="0.792969"/><stop stop-opacity="1" stop-color="rgb(93.591309%, 92.100525%, 100%)" offset="0.796875"/><stop stop-opacity="1" stop-color="rgb(94.030762%, 92.642212%, 100%)" offset="0.800781"/><stop stop-opacity="1" stop-color="rgb(94.470215%, 93.183899%, 100%)" offset="0.804688"/><stop stop-opacity="1" stop-color="rgb(94.908142%, 93.72406%, 100%)" offset="0.808594"/><stop stop-opacity="1" stop-color="rgb(95.347595%, 94.265747%, 100%)" offset="0.8125"/><stop stop-opacity="1" stop-color="rgb(95.785522%, 94.805908%, 100%)" offset="0.816406"/><stop stop-opacity="1" stop-color="rgb(96.224976%, 95.347595%, 100%)" offset="0.820312"/><stop stop-opacity="1" stop-color="rgb(96.664429%, 95.887756%, 100%)" offset="0.824219"/><stop stop-opacity="1" stop-color="rgb(97.103882%, 96.429443%, 100%)" offset="0.828125"/><stop stop-opacity="1" stop-color="rgb(97.541809%, 96.969604%, 100%)" offset="0.832031"/><stop stop-opacity="1" stop-color="rgb(97.981262%, 97.511292%, 100%)" offset="0.835938"/><stop stop-opacity="1" stop-color="rgb(98.419189%, 98.051453%, 100%)" offset="0.839844"/><stop stop-opacity="1" stop-color="rgb(98.858643%, 98.59314%, 100%)" offset="0.84375"/><stop stop-opacity="1" stop-color="rgb(99.29657%, 99.133301%, 100%)" offset="0.847656"/><stop stop-opacity="1" stop-color="rgb(99.736023%, 99.674988%, 100%)" offset="0.851562"/><stop stop-opacity="1" stop-color="rgb(99.867249%, 99.836731%, 100%)" offset="0.859375"/><stop stop-opacity="1" stop-color="rgb(100%, 100%, 100%)" offset="0.875"/><stop stop-opacity="1" stop-color="rgb(100%, 100%, 100%)" offset="1"/></linearGradient></defs><g clip-path="url(#6642dc666c)"><g clip-path="url(#b23fd1ed4c)"><path fill="url(#e0d35ea405)" d="M 113.230469 78.164062 L 113.230469 115.601562 L 75.796875 115.601562 L 75.796875 78.164062 Z M 113.230469 78.164062 " fill-rule="nonzero"/></g></g><g fill="#000000" fill-opacity="1"><g transform="translate(118.24697, 93.482582)"><g><path d="M 1.8125 -13.5 L 3.21875 -13.5 L 3.21875 0 L 1.8125 0 Z M 1.8125 -13.5 "/></g></g></g><g fill="#000000" fill-opacity="1"><g transform="translate(123.285778, 93.482582)"><g><path d="M 5.03125 -12.1875 L 0.609375 -12.1875 L 0.609375 -13.5 L 10.890625 -13.5 L 10.890625 -12.1875 L 6.453125 -12.1875 L 6.453125 0 L 5.03125 0 Z M 5.03125 -12.1875 "/></g></g></g><g fill="#000000" fill-opacity="1"><g transform="translate(134.77426, 93.482582)"><g><path d="M 1.8125 -13.5 L 3.21875 -13.5 L 3.21875 -1.3125 L 8.671875 -1.3125 L 8.671875 0 L 1.8125 0 Z M 1.8125 -13.5 "/></g></g></g><g fill="#000000" fill-opacity="1"><g transform="translate(144.347992, 93.482582)"><g><path d="M 5.75 -13.90625 L 6.140625 -13.90625 L 11.28125 0 L 9.734375 0 L 8.46875 -3.546875 L 3.34375 -3.546875 L 2.078125 0 L 0.609375 0 Z M 8 -4.859375 L 5.90625 -10.703125 L 3.8125 -4.859375 Z M 8 -4.859375 "/></g></g></g><g fill="#000000" fill-opacity="1"><g transform="translate(118.24697, 111.935733)"><g><path d="M 5.0625 0.203125 C 4.144531 0.203125 3.300781 -0.015625 2.53125 -0.453125 C 1.757812 -0.890625 1.117188 -1.519531 0.609375 -2.34375 L 1.6875 -3.21875 C 2.632812 -1.800781 3.765625 -1.09375 5.078125 -1.09375 C 5.867188 -1.09375 6.503906 -1.304688 6.984375 -1.734375 C 7.472656 -2.160156 7.71875 -2.734375 7.71875 -3.453125 C 7.71875 -4.066406 7.5 -4.59375 7.0625 -5.03125 C 6.625 -5.476562 5.921875 -5.894531 4.953125 -6.28125 C 3.734375 -6.757812 2.847656 -7.3125 2.296875 -7.9375 C 1.753906 -8.570312 1.484375 -9.328125 1.484375 -10.203125 C 1.484375 -10.722656 1.570312 -11.195312 1.75 -11.625 C 1.925781 -12.0625 2.175781 -12.429688 2.5 -12.734375 C 2.820312 -13.046875 3.207031 -13.285156 3.65625 -13.453125 C 4.101562 -13.617188 4.601562 -13.703125 5.15625 -13.703125 C 6.707031 -13.703125 7.984375 -13.019531 8.984375 -11.65625 L 7.90625 -10.765625 C 7.5 -11.328125 7.070312 -11.738281 6.625 -12 C 6.175781 -12.257812 5.679688 -12.390625 5.140625 -12.390625 C 4.453125 -12.390625 3.90625 -12.203125 3.5 -11.828125 C 3.101562 -11.453125 2.90625 -10.945312 2.90625 -10.3125 C 2.90625 -9.707031 3.109375 -9.191406 3.515625 -8.765625 C 3.921875 -8.347656 4.601562 -7.953125 5.5625 -7.578125 C 6.78125 -7.109375 7.675781 -6.546875 8.25 -5.890625 C 8.832031 -5.242188 9.125 -4.46875 9.125 -3.5625 C 9.125 -3.007812 9.023438 -2.5 8.828125 -2.03125 C 8.628906 -1.570312 8.347656 -1.175781 7.984375 -0.84375 C 7.617188 -0.507812 7.1875 -0.25 6.6875 -0.0625 C 6.195312 0.113281 5.65625 0.203125 5.0625 0.203125 Z M 5.0625 0.203125 "/></g></g></g><g fill="#000000" fill-opacity="1"><g transform="translate(128.385052, 111.935733)"><g><path d="M 5.03125 -12.1875 L 0.609375 -12.1875 L 0.609375 -13.5 L 10.890625 -13.5 L 10.890625 -12.1875 L 6.453125 -12.1875 L 6.453125 0 L 5.03125 0 Z M 5.03125 -12.1875 "/></g></g></g><g fill="#000000" fill-opacity="1"><g transform="translate(139.873533, 111.935733)"><g><path d="M 6.578125 0.203125 C 5.847656 0.203125 5.179688 0.0664062 4.578125 -0.203125 C 3.984375 -0.484375 3.472656 -0.867188 3.046875 -1.359375 C 2.628906 -1.859375 2.300781 -2.457031 2.0625 -3.15625 C 1.832031 -3.863281 1.71875 -4.640625 1.71875 -5.484375 L 1.71875 -13.5 L 3.125 -13.5 L 3.125 -5.609375 C 3.125 -4.929688 3.207031 -4.3125 3.375 -3.75 C 3.539062 -3.195312 3.78125 -2.722656 4.09375 -2.328125 C 4.40625 -1.941406 4.773438 -1.640625 5.203125 -1.421875 C 5.640625 -1.210938 6.128906 -1.109375 6.671875 -1.109375 C 7.210938 -1.109375 7.695312 -1.210938 8.125 -1.421875 C 8.5625 -1.640625 8.9375 -1.941406 9.25 -2.328125 C 9.5625 -2.722656 9.800781 -3.195312 9.96875 -3.75 C 10.132812 -4.3125 10.21875 -4.929688 10.21875 -5.609375 L 10.21875 -13.5 L 11.59375 -13.5 L 11.59375 -5.484375 C 11.59375 -4.640625 11.46875 -3.863281 11.21875 -3.15625 C 10.96875 -2.457031 10.617188 -1.859375 10.171875 -1.359375 C 9.734375 -0.867188 9.203125 -0.484375 8.578125 -0.203125 C 7.960938 0.0664062 7.296875 0.203125 6.578125 0.203125 Z M 6.578125 0.203125 "/></g></g></g><g fill="#000000" fill-opacity="1"><g transform="translate(153.175983, 111.935733)"><g><path d="M 1.8125 -13.5 L 6.234375 -13.5 C 7.265625 -13.5 8.21875 -13.332031 9.09375 -13 C 9.96875 -12.664062 10.722656 -12.195312 11.359375 -11.59375 C 11.992188 -10.988281 12.492188 -10.269531 12.859375 -9.4375 C 13.222656 -8.613281 13.40625 -7.71875 13.40625 -6.75 C 13.40625 -5.78125 13.222656 -4.882812 12.859375 -4.0625 C 12.492188 -3.238281 11.992188 -2.523438 11.359375 -1.921875 C 10.722656 -1.328125 9.96875 -0.859375 9.09375 -0.515625 C 8.21875 -0.171875 7.265625 0 6.234375 0 L 1.8125 0 Z M 6.203125 -1.3125 C 7.023438 -1.3125 7.785156 -1.441406 8.484375 -1.703125 C 9.179688 -1.972656 9.78125 -2.347656 10.28125 -2.828125 C 10.789062 -3.316406 11.1875 -3.894531 11.46875 -4.5625 C 11.75 -5.226562 11.890625 -5.957031 11.890625 -6.75 C 11.890625 -7.539062 11.75 -8.269531 11.46875 -8.9375 C 11.1875 -9.601562 10.789062 -10.175781 10.28125 -10.65625 C 9.78125 -11.144531 9.179688 -11.519531 8.484375 -11.78125 C 7.785156 -12.050781 7.023438 -12.1875 6.203125 -12.1875 L 3.21875 -12.1875 L 3.21875 -1.3125 Z M 6.203125 -1.3125 "/></g></g></g><g fill="#000000" fill-opacity="1"><g transform="translate(167.586972, 111.935733)"><g><path d="M 1.8125 -13.5 L 3.21875 -13.5 L 3.21875 0 L 1.8125 0 Z M 1.8125 -13.5 "/></g></g></g><g fill="#000000" fill-opacity="1"><g transform="translate(172.62578, 111.935733)"><g><path d="M 7.765625 0.203125 C 6.835938 0.203125 5.960938 0.0195312 5.140625 -0.34375 C 4.316406 -0.707031 3.597656 -1.203125 2.984375 -1.828125 C 2.378906 -2.460938 1.894531 -3.195312 1.53125 -4.03125 C 1.175781 -4.875 1 -5.78125 1 -6.75 C 1 -7.707031 1.175781 -8.609375 1.53125 -9.453125 C 1.894531 -10.296875 2.378906 -11.035156 2.984375 -11.671875 C 3.597656 -12.304688 4.316406 -12.800781 5.140625 -13.15625 C 5.960938 -13.519531 6.835938 -13.703125 7.765625 -13.703125 C 8.691406 -13.703125 9.5625 -13.519531 10.375 -13.15625 C 11.195312 -12.800781 11.910156 -12.304688 12.515625 -11.671875 C 13.128906 -11.035156 13.613281 -10.296875 13.96875 -9.453125 C 14.332031 -8.617188 14.515625 -7.71875 14.515625 -6.75 C 14.515625 -5.800781 14.332031 -4.90625 13.96875 -4.0625 C 13.613281 -3.21875 13.128906 -2.476562 12.515625 -1.84375 C 11.910156 -1.21875 11.195312 -0.71875 10.375 -0.34375 C 9.5625 0.0195312 8.691406 0.203125 7.765625 0.203125 Z M 7.765625 -1.1875 C 8.503906 -1.1875 9.191406 -1.328125 9.828125 -1.609375 C 10.472656 -1.890625 11.023438 -2.28125 11.484375 -2.78125 C 11.953125 -3.28125 12.320312 -3.867188 12.59375 -4.546875 C 12.863281 -5.222656 13 -5.957031 13 -6.75 C 13 -7.539062 12.863281 -8.273438 12.59375 -8.953125 C 12.320312 -9.640625 11.953125 -10.226562 11.484375 -10.71875 C 11.023438 -11.21875 10.472656 -11.609375 9.828125 -11.890625 C 9.191406 -12.171875 8.503906 -12.3125 7.765625 -12.3125 C 7.003906 -12.3125 6.304688 -12.171875 5.671875 -11.890625 C 5.035156 -11.609375 4.484375 -11.21875 4.015625 -10.71875 C 3.554688 -10.226562 3.191406 -9.640625 2.921875 -8.953125 C 2.648438 -8.273438 2.515625 -7.539062 2.515625 -6.75 C 2.515625 -5.957031 2.648438 -5.222656 2.921875 -4.546875 C 3.191406 -3.867188 3.554688 -3.28125 4.015625 -2.78125 C 4.484375 -2.28125 5.035156 -1.890625 5.671875 -1.609375 C 6.304688 -1.328125 7.003906 -1.1875 7.765625 -1.1875 Z M 7.765625 -1.1875 "/></g></g></g><g fill="#000000" fill-opacity="1"><g transform="translate(188.145307, 111.935733)"><g><path d="M 5.0625 0.203125 C 4.144531 0.203125 3.300781 -0.015625 2.53125 -0.453125 C 1.757812 -0.890625 1.117188 -1.519531 0.609375 -2.34375 L 1.6875 -3.21875 C 2.632812 -1.800781 3.765625 -1.09375 5.078125 -1.09375 C 5.867188 -1.09375 6.503906 -1.304688 6.984375 -1.734375 C 7.472656 -2.160156 7.71875 -2.734375 7.71875 -3.453125 C 7.71875 -4.066406 7.5 -4.59375 7.0625 -5.03125 C 6.625 -5.476562 5.921875 -5.894531 4.953125 -6.28125 C 3.734375 -6.757812 2.847656 -7.3125 2.296875 -7.9375 C 1.753906 -8.570312 1.484375 -9.328125 1.484375 -10.203125 C 1.484375 -10.722656 1.570312 -11.195312 1.75 -11.625 C 1.925781 -12.0625 2.175781 -12.429688 2.5 -12.734375 C 2.820312 -13.046875 3.207031 -13.285156 3.65625 -13.453125 C 4.101562 -13.617188 4.601562 -13.703125 5.15625 -13.703125 C 6.707031 -13.703125 7.984375 -13.019531 8.984375 -11.65625 L 7.90625 -10.765625 C 7.5 -11.328125 7.070312 -11.738281 6.625 -12 C 6.175781 -12.257812 5.679688 -12.390625 5.140625 -12.390625 C 4.453125 -12.390625 3.90625 -12.203125 3.5 -11.828125 C 3.101562 -11.453125 2.90625 -10.945312 2.90625 -10.3125 C 2.90625 -9.707031 3.109375 -9.191406 3.515625 -8.765625 C 3.921875 -8.347656 4.601562 -7.953125 5.5625 -7.578125 C 6.78125 -7.109375 7.675781 -6.546875 8.25 -5.890625 C 8.832031 -5.242188 9.125 -4.46875 9.125 -3.5625 C 9.125 -3.007812 9.023438 -2.5 8.828125 -2.03125 C 8.628906 -1.570312 8.347656 -1.175781 7.984375 -0.84375 C 7.617188 -0.507812 7.1875 -0.25 6.6875 -0.0625 C 6.195312 0.113281 5.65625 0.203125 5.0625 0.203125 Z M 5.0625 0.203125 "/></g></g></g></svg>