<svg xmlns="http://www.w3.org/2000/svg" xmlns:xlink="http://www.w3.org/1999/xlink" width="1932" zoomAndPan="magnify" viewBox="0 0 1449 1132.499966" height="1510" preserveAspectRatio="xMidYMid meet" version="1.0"><defs><clipPath id="7df9b28019"><path d="M 76 75.363281 L 1373 75.363281 L 1373 1056.679688 L 76 1056.679688 Z M 76 75.363281 " clip-rule="nonzero"/></clipPath><clipPath id="bd4aa52b43"><path d="M 1372.992188 75.363281 L 1372.992188 1056.757812 L 76.414062 1056.757812 L 76.414062 522.230469 C 165.929688 371.546875 330.390625 269.96875 517.460938 269.96875 C 567.6875 269.96875 616.257812 277.277344 662.210938 290.917969 C 817.304688 336.910156 994.808594 315.003906 1109.191406 200.640625 C 1173.789062 136.058594 1267.554688 75.363281 1372.992188 75.363281 Z M 1372.992188 75.363281 " clip-rule="nonzero"/></clipPath><clipPath id="199b2a4bf5"><path d="M 1081.425781 449.625 L 1092 449.625 L 1092 452 L 1081.425781 452 Z M 1081.425781 449.625 " clip-rule="nonzero"/></clipPath></defs><g clip-path="url(#7df9b28019)"><g clip-path="url(#bd4aa52b43)"><path fill="#ffffff" d="M 76.414062 75.363281 L 76.414062 1056.679688 L 1372.992188 1056.679688 L 1372.992188 75.363281 Z M 76.414062 75.363281 " fill-opacity="1" fill-rule="nonzero"/></g></g><g clip-path="url(#199b2a4bf5)"><path fill="#000000" d="M 1068.710938 428.882812 L 1091.765625 428.882812 L 1091.765625 417.375 L 1057.1875 417.375 L 1057.1875 451.898438 L 1068.710938 451.898438 Z M 1068.710938 428.882812 " fill-opacity="1" fill-rule="nonzero"/></g></svg>