<svg xmlns="http://www.w3.org/2000/svg" xmlns:xlink="http://www.w3.org/1999/xlink" width="1884" zoomAndPan="magnify" viewBox="0 0 1413 1207.499969" height="1610" preserveAspectRatio="xMidYMid meet" version="1.0"><defs><clipPath id="e556091744"><path d="M 76 308 L 1337 308 L 1337 1132 L 76 1132 Z M 76 308 " clip-rule="nonzero"/></clipPath><clipPath id="4aba3fdd6e"><path d="M 76.007812 314.425781 L 1156.253906 75.382812 L 1337.019531 892.277344 L 256.777344 1131.320312 Z M 76.007812 314.425781 " clip-rule="nonzero"/></clipPath><clipPath id="2513762cd9"><path d="M 1156.195312 75.398438 L 75.949219 314.441406 L 256.71875 1131.332031 L 1336.960938 892.289062 Z M 1156.195312 75.398438 " clip-rule="nonzero"/></clipPath><clipPath id="c9f8b8eac7"><path d="M 76.40625 314.339844 L 257.1875 1131.296875 L 1336.519531 892.453125 L 1238.054688 447.492188 C 1135.78125 338.542969 980.167969 284.28125 824.441406 318.738281 C 782.628906 327.992188 743.542969 343.027344 707.804688 362.84375 C 587.167969 429.699219 435.371094 444.160156 319.085938 370.03125 C 253.417969 328.167969 164.179688 294.917969 76.40625 314.339844 Z M 76.40625 314.339844 " clip-rule="nonzero"/></clipPath><clipPath id="2d32ff41ee"><path d="M 982 436 L 987 436 L 987 448 L 982 448 Z M 982 436 " clip-rule="nonzero"/></clipPath><clipPath id="adffbd6306"><path d="M 982.023438 440.746094 L 1001.371094 436.464844 L 1005.238281 453.9375 L 985.890625 458.21875 Z M 982.023438 440.746094 " clip-rule="nonzero"/></clipPath><clipPath id="261fdd57c3"><path d="M 955.90625 418.367188 L 1109.421875 384.394531 L 1151.820312 575.980469 L 998.300781 609.953125 Z M 955.90625 418.367188 " clip-rule="nonzero"/></clipPath><clipPath id="003b897caa"><path d="M 955.90625 418.367188 L 1109.421875 384.394531 L 1151.820312 575.980469 L 998.300781 609.953125 Z M 955.90625 418.367188 " clip-rule="nonzero"/></clipPath></defs><g clip-path="url(#e556091744)"><g clip-path="url(#4aba3fdd6e)"><g clip-path="url(#2513762cd9)"><g clip-path="url(#c9f8b8eac7)"><path fill="#ffffff" d="M 1277.695312 18.453125 L 1515.203125 1091.753906 L 135.230469 1397.125 L -102.273438 323.820312 Z M 1277.695312 18.453125 " fill-opacity="1" fill-rule="nonzero"/></g></g></g></g><g clip-path="url(#2d32ff41ee)"><g clip-path="url(#adffbd6306)"><g clip-path="url(#261fdd57c3)"><g clip-path="url(#003b897caa)"><path fill="#000000" d="M 967.621094 425.824219 L 986.808594 421.574219 L 984.691406 411.996094 L 955.90625 418.367188 L 962.265625 447.105469 L 971.859375 444.980469 Z M 967.621094 425.824219 " fill-opacity="1" fill-rule="nonzero"/></g></g></g></g></svg>